# Blender v2.77 (sub 0) OBJ File: 'desk5.blend'
# www.blender.org
mtllib desk5.mtl
o Cube_Cube.005
v -4.065519 1.444862 2.145075
v -4.065519 1.623775 2.145075
v -3.970620 1.444862 2.145075
v -3.970620 1.623775 2.145075
v -4.110730 5.107146 2.106934
v -4.110730 0.009683 2.106934
v -4.110730 5.107146 2.311513
v -4.110730 0.009683 2.311513
v -3.943944 5.107146 2.106934
v -3.943944 0.009683 2.106934
v -3.943944 5.107146 2.311513
v -3.943944 0.009683 2.311513
v -4.065519 2.392439 2.145075
v -4.065519 2.571352 2.145075
v -3.970620 2.392439 2.145075
v -3.970620 2.571352 2.145075
v -4.046717 4.583709 2.145309
v -4.046717 4.691723 2.145309
v -3.989423 4.583709 2.145309
v -3.989423 4.691723 2.145309
v -4.080336 2.558415 2.106934
v -4.080336 2.558414 2.311513
v -3.913549 2.558414 2.311513
v -3.913549 2.558414 2.106934
v -4.108200 4.894992 2.311513
v -3.941414 4.894992 2.311513
v -3.941414 4.894992 2.106934
v -4.108200 4.894992 2.106934
v -3.941414 4.894992 -0.145706
v -3.943944 5.107146 -0.145706
v -4.110730 5.107146 -0.145706
v -4.108200 4.894992 -0.145706
v 3.533722 1.444862 2.145075
v 3.533722 1.623775 2.145075
v 3.438822 1.444862 2.145075
v 3.438822 1.623775 2.145075
v 3.578933 5.107146 2.106934
v 3.578933 0.009683 2.106934
v 3.578933 5.107146 2.311513
v 3.578933 0.009683 2.311513
v 3.412146 5.107146 2.106934
v 3.412146 0.009683 2.106934
v 3.412146 5.107146 2.311513
v 3.412146 0.009683 2.311513
v 3.533722 2.392439 2.145075
v 3.533722 2.571352 2.145075
v 3.438822 2.392439 2.145075
v 3.438822 2.571352 2.145075
v 3.514919 4.583709 2.145309
v 3.514919 4.691723 2.145309
v 3.457625 4.583709 2.145309
v 3.457625 4.691723 2.145309
v 3.548538 2.558415 2.106934
v 3.548538 2.558414 2.311513
v 3.381751 2.558414 2.311513
v 3.381751 2.558414 2.106934
v 3.576402 4.894992 2.311513
v 3.409616 4.894992 2.311513
v 3.409616 4.894992 2.106934
v 3.576402 4.894992 2.106934
v 3.409616 4.894992 -0.145706
v 3.412146 5.107146 -0.145706
v 3.578933 5.107146 -0.145706
v 3.576402 4.894992 -0.145706
v -4.065519 1.444862 -2.391404
v -4.065519 1.623775 -2.391404
v -4.065519 1.444862 -0.123165
v -4.065519 1.623775 -0.123165
v -3.970620 1.444862 -2.391404
v -3.970620 1.623775 -2.391404
v -3.970620 1.444862 -0.123165
v -3.970620 1.623775 -0.123165
v -4.110730 5.107146 -2.353263
v -4.110730 0.009683 -2.353263
v -4.110730 5.107146 -2.557842
v -4.110730 0.009683 -2.557842
v -3.943944 5.107146 -2.353263
v -3.943944 0.009683 -2.353263
v -3.943944 5.107146 -2.557842
v -3.943944 0.009683 -2.557842
v -4.065519 2.392439 -2.391404
v -4.065519 2.571352 -2.391404
v -4.065519 2.392439 -0.123165
v -4.065519 2.571352 -0.123165
v -3.970620 2.392439 -2.391404
v -3.970620 2.571352 -2.391404
v -3.970620 2.392439 -0.123165
v -3.970620 2.571352 -0.123165
v -4.046717 4.583709 -2.391638
v -4.046717 4.691723 -2.391638
v -4.046717 4.583709 -0.123165
v -4.046717 4.691723 -0.123165
v -3.989423 4.583709 -2.391638
v -3.989423 4.691723 -2.391638
v -3.989423 4.583709 -0.123165
v -3.989423 4.691723 -0.123165
v -4.080336 2.558415 -2.353263
v -4.080336 2.558414 -2.557842
v -3.913549 2.558414 -2.557842
v -3.913549 2.558414 -2.353263
v -4.108200 4.894992 -2.557842
v -3.941414 4.894992 -2.557842
v -3.941414 4.894992 -2.353263
v -4.108200 4.894992 -2.353263
v -3.941414 4.894992 -0.100623
v -3.943944 5.107146 -0.100623
v -4.110730 5.107146 -0.100623
v -4.108200 4.894992 -0.100623
v 3.533722 1.444862 -2.391404
v 3.533722 1.623775 -2.391404
v 3.533722 1.444862 -0.123165
v 3.533722 1.623775 -0.123165
v 3.438822 1.444862 -2.391404
v 3.438822 1.623775 -2.391404
v 3.438822 1.444862 -0.123165
v 3.438822 1.623775 -0.123165
v 3.578933 5.107146 -2.353263
v 3.578933 0.009683 -2.353263
v 3.578933 5.107146 -2.557842
v 3.578933 0.009683 -2.557842
v 3.412146 5.107146 -2.353263
v 3.412146 0.009683 -2.353263
v 3.412146 5.107146 -2.557842
v 3.412146 0.009683 -2.557842
v 3.533722 2.392439 -2.391404
v 3.533722 2.571352 -2.391404
v 3.533722 2.392439 -0.123165
v 3.533722 2.571352 -0.123165
v 3.438822 2.392439 -2.391404
v 3.438822 2.571352 -2.391404
v 3.438822 2.392439 -0.123165
v 3.438822 2.571352 -0.123165
v 3.514919 4.583709 -2.391638
v 3.514919 4.691723 -2.391638
v 3.514919 4.583709 -0.123165
v 3.514919 4.691723 -0.123165
v 3.457625 4.583709 -2.391638
v 3.457625 4.691723 -2.391638
v 3.457625 4.583709 -0.123165
v 3.457625 4.691723 -0.123165
v 3.548538 2.558415 -2.353263
v 3.548538 2.558414 -2.557842
v 3.381751 2.558414 -2.557842
v 3.381751 2.558414 -2.353263
v 3.576402 4.894992 -2.557842
v 3.409616 4.894992 -2.557842
v 3.409616 4.894992 -2.353263
v 3.576402 4.894992 -2.353263
v 3.409616 4.894992 -0.100623
v 3.412146 5.107146 -0.100623
v 3.578933 5.107146 -0.100623
v 3.576402 4.894992 -0.100623
vn 0.0000 1.0000 0.0000
vn 0.0000 -1.0000 0.0000
vn 1.0000 0.0000 0.0000
vn 0.0000 0.0000 -1.0000
vn -1.0000 0.0000 0.0000
vn -0.9999 -0.0119 0.0000
vn 0.0000 0.0000 1.0000
vn 0.9999 0.0119 0.0000
vn 0.9999 -0.0119 0.0000
vn -0.9999 0.0119 0.0000
usemtl Metal
s off
f 67//1 1//1 3//1 71//1
f 72//2 4//2 2//2 68//2
f 1//3 67//3 68//3 2//3
f 3//4 1//4 2//4 4//4
f 71//5 3//5 4//5 72//5
f 28//6 25//6 7//6 5//6
f 25//7 26//7 11//7 7//7
f 26//8 27//8 9//8 11//8
f 27//2 28//2 32//2 29//2
f 5//1 7//1 11//1 9//1
f 10//2 12//2 8//2 6//2
f 83//1 13//1 15//1 87//1
f 88//2 16//2 14//2 84//2
f 13//3 83//3 84//3 14//3
f 15//4 13//4 14//4 16//4
f 87//5 15//5 16//5 88//5
f 91//1 17//1 19//1 95//1
f 96//2 20//2 18//2 92//2
f 17//3 91//3 92//3 18//3
f 19//4 17//4 18//4 20//4
f 95//5 19//5 20//5 96//5
f 10//4 6//4 21//4 24//4
f 12//9 10//9 24//9 23//9
f 8//7 12//7 23//7 22//7
f 6//10 8//10 22//10 21//10
f 24//4 21//4 28//4 27//4
f 23//8 24//8 27//8 26//8
f 22//7 23//7 26//7 25//7
f 21//6 22//6 25//6 28//6
f 29//4 32//4 31//4 30//4
f 5//1 9//1 30//1 31//1
f 28//6 5//6 31//6 32//6
f 9//8 27//8 29//8 30//8
f 111//1 115//1 35//1 33//1
f 116//2 112//2 34//2 36//2
f 33//5 34//5 112//5 111//5
f 35//4 36//4 34//4 33//4
f 115//3 116//3 36//3 35//3
f 60//9 37//9 39//9 57//9
f 57//7 39//7 43//7 58//7
f 58//10 43//10 41//10 59//10
f 59//2 61//2 64//2 60//2
f 37//1 41//1 43//1 39//1
f 42//2 38//2 40//2 44//2
f 127//1 131//1 47//1 45//1
f 132//2 128//2 46//2 48//2
f 45//5 46//5 128//5 127//5
f 47//4 48//4 46//4 45//4
f 131//3 132//3 48//3 47//3
f 135//1 139//1 51//1 49//1
f 140//2 136//2 50//2 52//2
f 49//5 50//5 136//5 135//5
f 51//4 52//4 50//4 49//4
f 139//3 140//3 52//3 51//3
f 42//4 56//4 53//4 38//4
f 44//6 55//6 56//6 42//6
f 40//7 54//7 55//7 44//7
f 38//8 53//8 54//8 40//8
f 56//4 59//4 60//4 53//4
f 55//10 58//10 59//10 56//10
f 54//7 57//7 58//7 55//7
f 53//9 60//9 57//9 54//9
f 61//4 62//4 63//4 64//4
f 37//1 63//1 62//1 41//1
f 60//9 64//9 63//9 37//9
f 41//10 62//10 61//10 59//10
f 67//1 71//1 69//1 65//1
f 72//2 68//2 66//2 70//2
f 67//4 68//4 72//4 71//4
f 65//3 66//3 68//3 67//3
f 69//7 70//7 66//7 65//7
f 71//5 72//5 70//5 69//5
f 104//6 73//6 75//6 101//6
f 101//4 75//4 79//4 102//4
f 102//8 79//8 77//8 103//8
f 103//2 105//2 108//2 104//2
f 73//1 77//1 79//1 75//1
f 78//2 74//2 76//2 80//2
f 83//1 87//1 85//1 81//1
f 88//2 84//2 82//2 86//2
f 83//4 84//4 88//4 87//4
f 81//3 82//3 84//3 83//3
f 85//7 86//7 82//7 81//7
f 87//5 88//5 86//5 85//5
f 91//1 95//1 93//1 89//1
f 96//2 92//2 90//2 94//2
f 91//4 92//4 96//4 95//4
f 89//3 90//3 92//3 91//3
f 93//7 94//7 90//7 89//7
f 95//5 96//5 94//5 93//5
f 78//7 100//7 97//7 74//7
f 80//9 99//9 100//9 78//9
f 76//4 98//4 99//4 80//4
f 74//10 97//10 98//10 76//10
f 100//7 103//7 104//7 97//7
f 99//8 102//8 103//8 100//8
f 98//4 101//4 102//4 99//4
f 97//6 104//6 101//6 98//6
f 105//7 106//7 107//7 108//7
f 73//1 107//1 106//1 77//1
f 104//6 108//6 107//6 73//6
f 77//8 106//8 105//8 103//8
f 111//1 109//1 113//1 115//1
f 116//2 114//2 110//2 112//2
f 111//4 115//4 116//4 112//4
f 109//5 111//5 112//5 110//5
f 113//7 109//7 110//7 114//7
f 115//3 113//3 114//3 116//3
f 148//9 145//9 119//9 117//9
f 145//4 146//4 123//4 119//4
f 146//10 147//10 121//10 123//10
f 147//2 148//2 152//2 149//2
f 117//1 119//1 123//1 121//1
f 122//2 124//2 120//2 118//2
f 127//1 125//1 129//1 131//1
f 132//2 130//2 126//2 128//2
f 127//4 131//4 132//4 128//4
f 125//5 127//5 128//5 126//5
f 129//7 125//7 126//7 130//7
f 131//3 129//3 130//3 132//3
f 135//1 133//1 137//1 139//1
f 140//2 138//2 134//2 136//2
f 135//4 139//4 140//4 136//4
f 133//5 135//5 136//5 134//5
f 137//7 133//7 134//7 138//7
f 139//3 137//3 138//3 140//3
f 122//7 118//7 141//7 144//7
f 124//6 122//6 144//6 143//6
f 120//4 124//4 143//4 142//4
f 118//8 120//8 142//8 141//8
f 144//7 141//7 148//7 147//7
f 143//10 144//10 147//10 146//10
f 142//4 143//4 146//4 145//4
f 141//9 142//9 145//9 148//9
f 149//7 152//7 151//7 150//7
f 117//1 121//1 150//1 151//1
f 148//9 117//9 151//9 152//9
f 121//10 147//10 149//10 150//10
o Cube.001
v 3.985801 5.169981 -2.580731
v 3.985801 5.046033 -2.580731
v 3.985801 5.169981 2.367790
v 3.985801 5.046033 2.367790
v -4.528450 5.169981 -2.580731
v -4.528450 5.046033 -2.580731
v -4.528450 5.169981 2.367790
v -4.528450 5.046033 2.367790
vn -1.0000 0.0000 0.0000
vn 0.0000 0.0000 -1.0000
vn 1.0000 0.0000 0.0000
vn 0.0000 0.0000 1.0000
vn 0.0000 -1.0000 0.0000
vn 0.0000 1.0000 0.0000
usemtl glass
s off
f 154//11 156//11 155//11 153//11
f 156//12 160//12 159//12 155//12
f 160//13 158//13 157//13 159//13
f 158//14 154//14 153//14 157//14
f 153//15 155//15 159//15 157//15
f 158//16 160//16 156//16 154//16
